<mxfile host="Electron" modified="2024-03-15T21:25:41.049Z" agent="Mozilla/5.0 (Windows NT 10.0; Win64; x64) AppleWebKit/537.36 (KHTML, like Gecko) draw.io/23.1.5 Chrome/120.0.6099.109 Electron/28.1.0 Safari/537.36" etag="zVunHovP7xy1wb-aL4uc" version="23.1.5" type="device">
  <diagram name="Страница — 1" id="Fq71EQHUg1du_12csKh2">
    <mxGraphModel dx="1373" dy="1016" grid="1" gridSize="10" guides="1" tooltips="1" connect="1" arrows="1" fold="1" page="1" pageScale="1" pageWidth="827" pageHeight="1169" math="0" shadow="0">
      <root>
        <mxCell id="0" />
        <mxCell id="1" parent="0" />
        <mxCell id="1ZEYeEjYrBHSYEVbmK2T-1" value="" style="shape=umlLifeline;perimeter=lifelinePerimeter;whiteSpace=wrap;html=1;container=1;dropTarget=0;collapsible=0;recursiveResize=0;outlineConnect=0;portConstraint=eastwest;newEdgeStyle={&quot;curved&quot;:0,&quot;rounded&quot;:0};participant=umlActor;fillColor=#d5e8d4;strokeColor=#82b366;" vertex="1" parent="1">
          <mxGeometry x="400" y="280" width="20" height="820" as="geometry" />
        </mxCell>
        <mxCell id="1ZEYeEjYrBHSYEVbmK2T-2" value="" style="html=1;points=[[0,0,0,0,5],[0,1,0,0,-5],[1,0,0,0,5],[1,1,0,0,-5]];perimeter=orthogonalPerimeter;outlineConnect=0;targetShapes=umlLifeline;portConstraint=eastwest;newEdgeStyle={&quot;curved&quot;:0,&quot;rounded&quot;:0};fillColor=#d5e8d4;strokeColor=#82b366;" vertex="1" parent="1ZEYeEjYrBHSYEVbmK2T-1">
          <mxGeometry x="5" y="74" width="10" height="736" as="geometry" />
        </mxCell>
        <mxCell id="1ZEYeEjYrBHSYEVbmK2T-3" value=":GUI" style="shape=umlLifeline;perimeter=lifelinePerimeter;whiteSpace=wrap;html=1;container=1;dropTarget=0;collapsible=0;recursiveResize=0;outlineConnect=0;portConstraint=eastwest;newEdgeStyle={&quot;curved&quot;:0,&quot;rounded&quot;:0};fillColor=#d5e8d4;strokeColor=#82b366;" vertex="1" parent="1">
          <mxGeometry x="540" y="280" width="100" height="820" as="geometry" />
        </mxCell>
        <mxCell id="1ZEYeEjYrBHSYEVbmK2T-4" value="&lt;div style=&quot;font-size: 12px;&quot;&gt;&lt;font style=&quot;font-size: 12px;&quot;&gt;Уведомить о&lt;/font&gt;&lt;/div&gt;&lt;div style=&quot;font-size: 12px;&quot;&gt;&lt;font style=&quot;font-size: 12px;&quot;&gt;невалидности полей&lt;/font&gt;&lt;/div&gt;" style="html=1;align=center;spacingLeft=2;endArrow=block;rounded=0;edgeStyle=orthogonalEdgeStyle;curved=0;rounded=0;" edge="1" parent="1ZEYeEjYrBHSYEVbmK2T-3" target="1ZEYeEjYrBHSYEVbmK2T-6">
          <mxGeometry x="-0.0588" y="75" relative="1" as="geometry">
            <mxPoint x="55" y="180" as="sourcePoint" />
            <Array as="points">
              <mxPoint x="85" y="210" />
            </Array>
            <mxPoint as="offset" />
          </mxGeometry>
        </mxCell>
        <mxCell id="1ZEYeEjYrBHSYEVbmK2T-5" value="" style="html=1;points=[[0,0,0,0,5],[0,1,0,0,-5],[1,0,0,0,5],[1,1,0,0,-5]];perimeter=orthogonalPerimeter;outlineConnect=0;targetShapes=umlLifeline;portConstraint=eastwest;newEdgeStyle={&quot;curved&quot;:0,&quot;rounded&quot;:0};fillColor=#d5e8d4;strokeColor=#82b366;" vertex="1" parent="1ZEYeEjYrBHSYEVbmK2T-3">
          <mxGeometry x="45" y="75" width="10" height="735" as="geometry" />
        </mxCell>
        <mxCell id="1ZEYeEjYrBHSYEVbmK2T-6" value="" style="html=1;points=[[0,0,0,0,5],[0,1,0,0,-5],[1,0,0,0,5],[1,1,0,0,-5]];perimeter=orthogonalPerimeter;outlineConnect=0;targetShapes=umlLifeline;portConstraint=eastwest;newEdgeStyle={&quot;curved&quot;:0,&quot;rounded&quot;:0};fillColor=#d5e8d4;strokeColor=#82b366;" vertex="1" parent="1ZEYeEjYrBHSYEVbmK2T-3">
          <mxGeometry x="50" y="200" width="10" height="40" as="geometry" />
        </mxCell>
        <mxCell id="1ZEYeEjYrBHSYEVbmK2T-7" value="" style="endArrow=open;html=1;rounded=0;endFill=0;" edge="1" parent="1">
          <mxGeometry width="50" height="50" relative="1" as="geometry">
            <mxPoint x="415" y="378" as="sourcePoint" />
            <mxPoint x="585" y="378" as="targetPoint" />
          </mxGeometry>
        </mxCell>
        <mxCell id="1ZEYeEjYrBHSYEVbmK2T-8" value="&lt;font style=&quot;font-size: 12px;&quot;&gt;Заполнить форму&lt;br&gt;&lt;/font&gt;" style="text;html=1;align=center;verticalAlign=middle;resizable=0;points=[];autosize=1;strokeColor=none;fillColor=none;fontSize=12;" vertex="1" parent="1">
          <mxGeometry x="442" y="352" width="120" height="30" as="geometry" />
        </mxCell>
        <mxCell id="1ZEYeEjYrBHSYEVbmK2T-9" value="&lt;font style=&quot;font-size: 12px;&quot;&gt;Выбрать &quot;Войти&quot;&lt;/font&gt;" style="text;html=1;align=center;verticalAlign=middle;resizable=0;points=[];autosize=1;strokeColor=none;fillColor=none;" vertex="1" parent="1">
          <mxGeometry x="445" y="580" width="120" height="30" as="geometry" />
        </mxCell>
        <mxCell id="1ZEYeEjYrBHSYEVbmK2T-10" value="" style="endArrow=open;html=1;rounded=0;endFill=0;" edge="1" parent="1">
          <mxGeometry width="50" height="50" relative="1" as="geometry">
            <mxPoint x="415" y="612" as="sourcePoint" />
            <mxPoint x="585" y="612" as="targetPoint" />
          </mxGeometry>
        </mxCell>
        <mxCell id="1ZEYeEjYrBHSYEVbmK2T-11" value=":Валидатор" style="shape=umlLifeline;perimeter=lifelinePerimeter;whiteSpace=wrap;html=1;container=1;dropTarget=0;collapsible=0;recursiveResize=0;outlineConnect=0;portConstraint=eastwest;newEdgeStyle={&quot;curved&quot;:0,&quot;rounded&quot;:0};fillColor=#d5e8d4;strokeColor=#82b366;" vertex="1" parent="1">
          <mxGeometry x="705" y="280" width="100" height="820" as="geometry" />
        </mxCell>
        <mxCell id="1ZEYeEjYrBHSYEVbmK2T-12" value="" style="endArrow=block;html=1;rounded=0;endFill=1;" edge="1" parent="1">
          <mxGeometry width="50" height="50" relative="1" as="geometry">
            <mxPoint x="595" y="393" as="sourcePoint" />
            <mxPoint x="750" y="393" as="targetPoint" />
          </mxGeometry>
        </mxCell>
        <mxCell id="1ZEYeEjYrBHSYEVbmK2T-13" value="&lt;font style=&quot;font-size: 12px;&quot;&gt;Валидация полей&lt;/font&gt;" style="text;html=1;align=center;verticalAlign=middle;resizable=0;points=[];autosize=1;strokeColor=none;fillColor=none;" vertex="1" parent="1">
          <mxGeometry x="610" y="364" width="120" height="30" as="geometry" />
        </mxCell>
        <mxCell id="1ZEYeEjYrBHSYEVbmK2T-14" value="" style="endArrow=open;html=1;rounded=0;endFill=0;dashed=1;" edge="1" parent="1">
          <mxGeometry width="50" height="50" relative="1" as="geometry">
            <mxPoint x="750" y="426.0000000000001" as="sourcePoint" />
            <mxPoint x="595" y="426" as="targetPoint" />
          </mxGeometry>
        </mxCell>
        <mxCell id="1ZEYeEjYrBHSYEVbmK2T-15" value="&lt;font style=&quot;font-size: 12px;&quot;&gt;Ответ валидатора&lt;/font&gt;" style="text;html=1;align=center;verticalAlign=middle;resizable=0;points=[];autosize=1;strokeColor=none;fillColor=none;" vertex="1" parent="1">
          <mxGeometry x="606" y="401" width="130" height="30" as="geometry" />
        </mxCell>
        <mxCell id="1ZEYeEjYrBHSYEVbmK2T-16" value="&lt;font style=&quot;font-size: 12px;&quot;&gt;opt&lt;/font&gt;" style="shape=umlFrame;whiteSpace=wrap;html=1;pointerEvents=0;width=40;height=15;" vertex="1" parent="1">
          <mxGeometry x="340" y="440" width="470" height="90" as="geometry" />
        </mxCell>
        <mxCell id="1ZEYeEjYrBHSYEVbmK2T-17" value="&lt;font style=&quot;font-size: 12px;&quot;&gt;[валидация провалена]&lt;/font&gt;" style="text;html=1;align=center;verticalAlign=middle;whiteSpace=wrap;rounded=0;" vertex="1" parent="1">
          <mxGeometry x="342" y="456" width="148" height="30" as="geometry" />
        </mxCell>
        <mxCell id="1ZEYeEjYrBHSYEVbmK2T-18" value="" style="endArrow=open;html=1;rounded=0;endFill=0;dashed=1;" edge="1" parent="1">
          <mxGeometry width="50" height="50" relative="1" as="geometry">
            <mxPoint x="585" y="563" as="sourcePoint" />
            <mxPoint x="415" y="563" as="targetPoint" />
          </mxGeometry>
        </mxCell>
        <mxCell id="1ZEYeEjYrBHSYEVbmK2T-19" value="&lt;font style=&quot;font-size: 12px;&quot;&gt;Форма&lt;/font&gt;" style="text;html=1;align=center;verticalAlign=middle;resizable=0;points=[];autosize=1;strokeColor=none;fillColor=none;" vertex="1" parent="1">
          <mxGeometry x="468" y="536" width="60" height="30" as="geometry" />
        </mxCell>
        <mxCell id="1ZEYeEjYrBHSYEVbmK2T-20" value=":Валидатор сервера" style="shape=umlLifeline;perimeter=lifelinePerimeter;whiteSpace=wrap;html=1;container=1;dropTarget=0;collapsible=0;recursiveResize=0;outlineConnect=0;portConstraint=eastwest;newEdgeStyle={&quot;curved&quot;:0,&quot;rounded&quot;:0};fillColor=#d5e8d4;strokeColor=#82b366;" vertex="1" parent="1">
          <mxGeometry x="1040" y="279" width="100" height="821" as="geometry" />
        </mxCell>
        <mxCell id="1ZEYeEjYrBHSYEVbmK2T-21" value=":Сервер" style="shape=umlLifeline;perimeter=lifelinePerimeter;whiteSpace=wrap;html=1;container=1;dropTarget=0;collapsible=0;recursiveResize=0;outlineConnect=0;portConstraint=eastwest;newEdgeStyle={&quot;curved&quot;:0,&quot;rounded&quot;:0};fillColor=#d5e8d4;strokeColor=#82b366;" vertex="1" parent="1">
          <mxGeometry x="870" y="279" width="100" height="821" as="geometry" />
        </mxCell>
        <mxCell id="1ZEYeEjYrBHSYEVbmK2T-22" value="" style="endArrow=block;html=1;rounded=0;endFill=1;" edge="1" parent="1">
          <mxGeometry width="50" height="50" relative="1" as="geometry">
            <mxPoint x="595" y="623.0000000000002" as="sourcePoint" />
            <mxPoint x="915" y="623.0000000000002" as="targetPoint" />
          </mxGeometry>
        </mxCell>
        <mxCell id="1ZEYeEjYrBHSYEVbmK2T-23" value="&lt;font style=&quot;font-size: 12px;&quot;&gt;Запрос на сервер&lt;/font&gt;" style="text;html=1;align=center;verticalAlign=middle;resizable=0;points=[];autosize=1;strokeColor=none;fillColor=none;" vertex="1" parent="1">
          <mxGeometry x="695" y="590" width="120" height="30" as="geometry" />
        </mxCell>
        <mxCell id="1ZEYeEjYrBHSYEVbmK2T-24" value="" style="endArrow=block;html=1;rounded=0;endFill=1;" edge="1" parent="1">
          <mxGeometry width="50" height="50" relative="1" as="geometry">
            <mxPoint x="925" y="640" as="sourcePoint" />
            <mxPoint x="1085" y="640" as="targetPoint" />
          </mxGeometry>
        </mxCell>
        <mxCell id="1ZEYeEjYrBHSYEVbmK2T-25" value="&lt;font style=&quot;font-size: 12px;&quot;&gt;Валидация полей&lt;/font&gt;" style="text;html=1;align=center;verticalAlign=middle;resizable=0;points=[];autosize=1;strokeColor=none;fillColor=none;" vertex="1" parent="1">
          <mxGeometry x="945" y="610" width="120" height="30" as="geometry" />
        </mxCell>
        <mxCell id="1ZEYeEjYrBHSYEVbmK2T-26" value=":DB" style="shape=umlLifeline;perimeter=lifelinePerimeter;whiteSpace=wrap;html=1;container=1;dropTarget=0;collapsible=0;recursiveResize=0;outlineConnect=0;portConstraint=eastwest;newEdgeStyle={&quot;curved&quot;:0,&quot;rounded&quot;:0};fillColor=#d5e8d4;strokeColor=#82b366;" vertex="1" parent="1">
          <mxGeometry x="1220" y="280" width="100" height="820" as="geometry" />
        </mxCell>
        <mxCell id="1ZEYeEjYrBHSYEVbmK2T-27" value="" style="endArrow=classic;html=1;rounded=0;" edge="1" parent="1">
          <mxGeometry width="50" height="50" relative="1" as="geometry">
            <mxPoint x="1095" y="656" as="sourcePoint" />
            <mxPoint x="1265" y="656" as="targetPoint" />
          </mxGeometry>
        </mxCell>
        <mxCell id="1ZEYeEjYrBHSYEVbmK2T-28" value="&lt;span style=&quot;&quot;&gt;Запрос пользователя &lt;br&gt;с указанным email&lt;/span&gt;" style="text;html=1;align=center;verticalAlign=middle;resizable=0;points=[];autosize=1;strokeColor=none;fillColor=none;" vertex="1" parent="1">
          <mxGeometry x="1115" y="610" width="140" height="40" as="geometry" />
        </mxCell>
        <mxCell id="1ZEYeEjYrBHSYEVbmK2T-29" value="" style="endArrow=open;html=1;rounded=0;endFill=0;dashed=1;" edge="1" parent="1">
          <mxGeometry width="50" height="50" relative="1" as="geometry">
            <mxPoint x="1265" y="695" as="sourcePoint" />
            <mxPoint x="1095" y="695" as="targetPoint" />
          </mxGeometry>
        </mxCell>
        <mxCell id="1ZEYeEjYrBHSYEVbmK2T-30" value="&lt;font style=&quot;font-size: 12px;&quot;&gt;Ответ базы данных&lt;/font&gt;" style="text;html=1;align=center;verticalAlign=middle;resizable=0;points=[];autosize=1;strokeColor=none;fillColor=none;" vertex="1" parent="1">
          <mxGeometry x="1120" y="670" width="130" height="30" as="geometry" />
        </mxCell>
        <mxCell id="1ZEYeEjYrBHSYEVbmK2T-31" value="" style="endArrow=open;html=1;rounded=0;endFill=0;dashed=1;" edge="1" parent="1">
          <mxGeometry width="50" height="50" relative="1" as="geometry">
            <mxPoint x="1085" y="720" as="sourcePoint" />
            <mxPoint x="925" y="720" as="targetPoint" />
          </mxGeometry>
        </mxCell>
        <mxCell id="1ZEYeEjYrBHSYEVbmK2T-32" value="&lt;font style=&quot;font-size: 12px;&quot;&gt;Ответ валидатора&lt;/font&gt;" style="text;html=1;align=center;verticalAlign=middle;resizable=0;points=[];autosize=1;strokeColor=none;fillColor=none;" vertex="1" parent="1">
          <mxGeometry x="950" y="690" width="130" height="30" as="geometry" />
        </mxCell>
        <mxCell id="1ZEYeEjYrBHSYEVbmK2T-33" value="&lt;font style=&quot;font-size: 12px;&quot;&gt;[else]&lt;/font&gt;" style="text;html=1;align=center;verticalAlign=middle;whiteSpace=wrap;rounded=0;" vertex="1" parent="1">
          <mxGeometry x="310" y="880" width="120" height="30" as="geometry" />
        </mxCell>
        <mxCell id="1ZEYeEjYrBHSYEVbmK2T-35" value="" style="endArrow=open;html=1;rounded=0;endFill=0;dashed=1;" edge="1" parent="1">
          <mxGeometry width="50" height="50" relative="1" as="geometry">
            <mxPoint x="915" y="770" as="sourcePoint" />
            <mxPoint x="595" y="770" as="targetPoint" />
          </mxGeometry>
        </mxCell>
        <mxCell id="1ZEYeEjYrBHSYEVbmK2T-36" value="&lt;font style=&quot;font-size: 12px;&quot;&gt;Ответ сервера&lt;/font&gt;" style="text;html=1;align=center;verticalAlign=middle;resizable=0;points=[];autosize=1;strokeColor=none;fillColor=none;" vertex="1" parent="1">
          <mxGeometry x="710" y="742" width="110" height="30" as="geometry" />
        </mxCell>
        <mxCell id="1ZEYeEjYrBHSYEVbmK2T-37" value="" style="html=1;points=[[0,0,0,0,5],[0,1,0,0,-5],[1,0,0,0,5],[1,1,0,0,-5]];perimeter=orthogonalPerimeter;outlineConnect=0;targetShapes=umlLifeline;portConstraint=eastwest;newEdgeStyle={&quot;curved&quot;:0,&quot;rounded&quot;:0};fillColor=#d5e8d4;strokeColor=#82b366;" vertex="1" parent="1">
          <mxGeometry x="590" y="820" width="10" height="40" as="geometry" />
        </mxCell>
        <mxCell id="1ZEYeEjYrBHSYEVbmK2T-38" value="&lt;div style=&quot;font-size: 13px;&quot;&gt;&lt;font style=&quot;font-size: 13px;&quot;&gt;Уведомить о&lt;/font&gt;&lt;/div&gt;&lt;div style=&quot;font-size: 13px;&quot;&gt;&lt;font style=&quot;font-size: 13px;&quot;&gt;невалидности полей&lt;/font&gt;&lt;/div&gt;" style="html=1;align=center;spacingLeft=2;endArrow=block;rounded=0;edgeStyle=orthogonalEdgeStyle;curved=0;rounded=0;" edge="1" parent="1" target="1ZEYeEjYrBHSYEVbmK2T-37">
          <mxGeometry x="-0.0595" y="75" relative="1" as="geometry">
            <mxPoint x="595" y="800" as="sourcePoint" />
            <Array as="points">
              <mxPoint x="625" y="830" />
            </Array>
            <mxPoint as="offset" />
          </mxGeometry>
        </mxCell>
        <mxCell id="1ZEYeEjYrBHSYEVbmK2T-43" value="" style="endArrow=open;html=1;rounded=0;endFill=0;dashed=1;" edge="1" parent="1">
          <mxGeometry width="50" height="50" relative="1" as="geometry">
            <mxPoint x="915" y="988" as="sourcePoint" />
            <mxPoint x="595" y="988" as="targetPoint" />
          </mxGeometry>
        </mxCell>
        <mxCell id="1ZEYeEjYrBHSYEVbmK2T-44" value="&lt;font style=&quot;font-size: 12px;&quot;&gt;Ответ&lt;/font&gt;" style="text;html=1;align=center;verticalAlign=middle;resizable=0;points=[];autosize=1;strokeColor=none;fillColor=none;" vertex="1" parent="1">
          <mxGeometry x="725" y="961" width="60" height="30" as="geometry" />
        </mxCell>
        <mxCell id="1ZEYeEjYrBHSYEVbmK2T-45" value="" style="html=1;points=[[0,0,0,0,5],[0,1,0,0,-5],[1,0,0,0,5],[1,1,0,0,-5]];perimeter=orthogonalPerimeter;outlineConnect=0;targetShapes=umlLifeline;portConstraint=eastwest;newEdgeStyle={&quot;curved&quot;:0,&quot;rounded&quot;:0};fillColor=#d5e8d4;strokeColor=#82b366;" vertex="1" parent="1">
          <mxGeometry x="590" y="1027" width="10" height="40" as="geometry" />
        </mxCell>
        <mxCell id="1ZEYeEjYrBHSYEVbmK2T-46" value="&lt;span style=&quot;font-size: 12px;&quot;&gt;Переход в личный&lt;br&gt;&lt;/span&gt;кабинет" style="html=1;align=center;spacingLeft=2;endArrow=block;rounded=0;edgeStyle=orthogonalEdgeStyle;curved=0;rounded=0;" edge="1" parent="1" target="1ZEYeEjYrBHSYEVbmK2T-45">
          <mxGeometry x="0.0982" y="75" relative="1" as="geometry">
            <mxPoint x="595" y="1011" as="sourcePoint" />
            <Array as="points">
              <mxPoint x="625" y="1011" />
            </Array>
            <mxPoint as="offset" />
          </mxGeometry>
        </mxCell>
        <mxCell id="1ZEYeEjYrBHSYEVbmK2T-47" value="&amp;nbsp;sd Вход" style="shape=umlFrame;whiteSpace=wrap;html=1;pointerEvents=0;width=140;height=20;align=left;" vertex="1" parent="1">
          <mxGeometry x="270" y="250" width="1220" height="870" as="geometry" />
        </mxCell>
        <mxCell id="1ZEYeEjYrBHSYEVbmK2T-48" value="" style="html=1;points=[[0,0,0,0,5],[0,1,0,0,-5],[1,0,0,0,5],[1,1,0,0,-5]];perimeter=orthogonalPerimeter;outlineConnect=0;targetShapes=umlLifeline;portConstraint=eastwest;newEdgeStyle={&quot;curved&quot;:0,&quot;rounded&quot;:0};fillColor=#d5e8d4;strokeColor=#82b366;" vertex="1" parent="1">
          <mxGeometry x="750" y="384" width="10" height="46" as="geometry" />
        </mxCell>
        <mxCell id="1ZEYeEjYrBHSYEVbmK2T-49" value="" style="html=1;points=[[0,0,0,0,5],[0,1,0,0,-5],[1,0,0,0,5],[1,1,0,0,-5]];perimeter=orthogonalPerimeter;outlineConnect=0;targetShapes=umlLifeline;portConstraint=eastwest;newEdgeStyle={&quot;curved&quot;:0,&quot;rounded&quot;:0};fillColor=#d5e8d4;strokeColor=#82b366;" vertex="1" parent="1">
          <mxGeometry x="915" y="610" width="10" height="400" as="geometry" />
        </mxCell>
        <mxCell id="1ZEYeEjYrBHSYEVbmK2T-50" value="" style="html=1;points=[[0,0,0,0,5],[0,1,0,0,-5],[1,0,0,0,5],[1,1,0,0,-5]];perimeter=orthogonalPerimeter;outlineConnect=0;targetShapes=umlLifeline;portConstraint=eastwest;newEdgeStyle={&quot;curved&quot;:0,&quot;rounded&quot;:0};fillColor=#d5e8d4;strokeColor=#82b366;" vertex="1" parent="1">
          <mxGeometry x="1085" y="630" width="10" height="100" as="geometry" />
        </mxCell>
        <mxCell id="1ZEYeEjYrBHSYEVbmK2T-51" value="" style="html=1;points=[[0,0,0,0,5],[0,1,0,0,-5],[1,0,0,0,5],[1,1,0,0,-5]];perimeter=orthogonalPerimeter;outlineConnect=0;targetShapes=umlLifeline;portConstraint=eastwest;newEdgeStyle={&quot;curved&quot;:0,&quot;rounded&quot;:0};fillColor=#d5e8d4;strokeColor=#82b366;" vertex="1" parent="1">
          <mxGeometry x="1265" y="650" width="10" height="50" as="geometry" />
        </mxCell>
        <mxCell id="1ZEYeEjYrBHSYEVbmK2T-53" value="&lt;font style=&quot;font-size: 12px;&quot;&gt;alt&lt;/font&gt;" style="shape=umlFrame;whiteSpace=wrap;html=1;pointerEvents=0;width=40;height=15;" vertex="1" parent="1">
          <mxGeometry x="340" y="740" width="1110" height="340" as="geometry" />
        </mxCell>
        <mxCell id="1ZEYeEjYrBHSYEVbmK2T-54" value="" style="endArrow=none;dashed=1;html=1;rounded=0;exitX=0;exitY=0.404;exitDx=0;exitDy=0;exitPerimeter=0;entryX=1.004;entryY=0.404;entryDx=0;entryDy=0;entryPerimeter=0;" edge="1" parent="1" source="1ZEYeEjYrBHSYEVbmK2T-53" target="1ZEYeEjYrBHSYEVbmK2T-53">
          <mxGeometry width="50" height="50" relative="1" as="geometry">
            <mxPoint x="840" y="890" as="sourcePoint" />
            <mxPoint x="1461" y="890" as="targetPoint" />
          </mxGeometry>
        </mxCell>
        <mxCell id="1ZEYeEjYrBHSYEVbmK2T-110" value="&lt;font style=&quot;font-size: 12px;&quot;&gt;[пароль или логин не совпали]&lt;/font&gt;" style="text;html=1;align=center;verticalAlign=middle;whiteSpace=wrap;rounded=0;" vertex="1" parent="1">
          <mxGeometry x="340" y="772" width="170" height="30" as="geometry" />
        </mxCell>
        <mxCell id="1ZEYeEjYrBHSYEVbmK2T-111" value="" style="html=1;points=[[0,0,0,0,5],[0,1,0,0,-5],[1,0,0,0,5],[1,1,0,0,-5]];perimeter=orthogonalPerimeter;outlineConnect=0;targetShapes=umlLifeline;portConstraint=eastwest;newEdgeStyle={&quot;curved&quot;:0,&quot;rounded&quot;:0};fillColor=#d5e8d4;strokeColor=#82b366;" vertex="1" parent="1">
          <mxGeometry x="920" y="914" width="10" height="40" as="geometry" />
        </mxCell>
        <mxCell id="1ZEYeEjYrBHSYEVbmK2T-112" value="&lt;div style=&quot;font-size: 13px;&quot;&gt;Генерация токена&lt;/div&gt;" style="html=1;align=center;spacingLeft=2;endArrow=block;rounded=0;edgeStyle=orthogonalEdgeStyle;curved=0;rounded=0;" edge="1" parent="1" target="1ZEYeEjYrBHSYEVbmK2T-111">
          <mxGeometry x="-0.0595" y="75" relative="1" as="geometry">
            <mxPoint x="925" y="894" as="sourcePoint" />
            <Array as="points">
              <mxPoint x="955" y="924" />
            </Array>
            <mxPoint as="offset" />
          </mxGeometry>
        </mxCell>
        <mxCell id="1ZEYeEjYrBHSYEVbmK2T-113" value=":Браузер" style="shape=umlLifeline;perimeter=lifelinePerimeter;whiteSpace=wrap;html=1;container=1;dropTarget=0;collapsible=0;recursiveResize=0;outlineConnect=0;portConstraint=eastwest;newEdgeStyle={&quot;curved&quot;:0,&quot;rounded&quot;:0};fillColor=#d5e8d4;strokeColor=#82b366;" vertex="1" parent="1">
          <mxGeometry x="1370" y="280" width="100" height="820" as="geometry" />
        </mxCell>
        <mxCell id="1ZEYeEjYrBHSYEVbmK2T-114" value="" style="endArrow=block;html=1;rounded=0;endFill=1;" edge="1" parent="1">
          <mxGeometry width="50" height="50" relative="1" as="geometry">
            <mxPoint x="925" y="970" as="sourcePoint" />
            <mxPoint x="1419.5" y="970" as="targetPoint" />
          </mxGeometry>
        </mxCell>
        <mxCell id="1ZEYeEjYrBHSYEVbmK2T-115" value="&lt;font style=&quot;font-size: 12px;&quot;&gt;Сохранение токена&lt;/font&gt;" style="text;html=1;align=center;verticalAlign=middle;resizable=0;points=[];autosize=1;strokeColor=none;fillColor=none;" vertex="1" parent="1">
          <mxGeometry x="1050" y="944" width="130" height="30" as="geometry" />
        </mxCell>
      </root>
    </mxGraphModel>
  </diagram>
</mxfile>
